<svg width="63" height="63" viewBox="0 0 63 63" fill="none" xmlns="http://www.w3.org/2000/svg">
<path fill-rule="evenodd" clip-rule="evenodd" d="M11.8057 11.2116C13.7551 12.7954 14.4864 12.6746 18.1471 12.4303L52.6578 10.3581C53.3898 10.3581 52.7811 9.62789 52.537 9.50656L46.8056 5.36313C45.7073 4.51049 44.2442 3.53407 41.44 3.77833L8.02317 6.21564C6.80446 6.33647 6.56106 6.94583 7.04638 7.43423L11.8057 11.2116ZM13.8777 19.2543V55.5656C13.8777 57.5171 14.8529 58.2472 17.0478 58.1265L54.9751 55.9318C57.1711 55.8111 57.4157 54.4689 57.4157 52.8836V16.8159C57.4157 15.2332 56.8068 14.3797 55.4626 14.5015L15.8282 16.8159C14.3655 16.9388 13.8775 17.6705 13.8775 19.2543H13.8777ZM51.3194 21.2021C51.5626 22.2999 51.3194 23.3966 50.2196 23.5201L48.3922 23.8842V50.6915C46.8056 51.5443 45.3425 52.0318 44.1233 52.0318C42.1713 52.0318 41.6824 51.4221 40.2203 49.5953L28.2669 30.83V48.986L32.0494 49.8395C32.0494 49.8395 32.0494 52.0318 28.9977 52.0318L20.5848 52.5198C20.3404 52.0318 20.5848 50.8143 21.4382 50.5704L23.6336 49.9619V25.9563L20.5854 25.712C20.3409 24.6143 20.9498 23.0314 22.6584 22.9086L31.6835 22.3002L44.1233 41.3098V24.4934L40.9516 24.1294C40.7082 22.7874 41.6824 21.813 42.9021 21.6921L51.3194 21.2021ZM5.21744 2.92582L39.9762 0.366069C44.2447 -1.43349e-05 45.343 0.245233 48.0258 2.19402L59.1212 9.9925C60.952 11.3335 61.5622 11.6986 61.5622 13.1605V55.9318C61.5622 58.6124 60.5857 60.1977 57.1717 60.4402L16.8062 62.8778C14.2434 63 13.0237 62.6348 11.6815 60.9278L3.51069 50.3265C2.04673 48.375 1.43787 46.9151 1.43787 45.2072V7.1891C1.43787 4.99704 2.41466 3.16848 5.21744 2.92582Z" fill="#3A3A3A"/>
</svg>
